Coordinates
version=1
nRows=8
nColumns=40
inDegrees=yes

Units are S.I. units (second, meters, Newtons, ...)
If the header above contains a line with 'inDegrees', this indicates whether rotational values are in degrees (yes) or radians (no).

endheader
time	pelvis_tilt	pelvis_list	pelvis_rotation	pelvis_tx	pelvis_ty	pelvis_tz	hip_flexion_r	hip_adduction_r	hip_rotation_r	knee_angle_r	knee_angle_r_beta	ankle_angle_r	subtalar_angle_r	mtp_angle_r	hip_flexion_l	hip_adduction_l	hip_rotation_l	knee_angle_l	knee_angle_l_beta	ankle_angle_l	subtalar_angle_l	mtp_angle_l	lumbar_extension	lumbar_bending	lumbar_rotation	arm_flex_r	arm_add_r	arm_rot_r	elbow_flex_r	pro_sup_r	wrist_flex_r	wrist_dev_r	arm_flex_l	arm_add_l	arm_rot_l	elbow_flex_l	pro_sup_l	wrist_flex_l	wrist_dev_l
      4.51500000	    -10.00422577	     -8.02575309	      2.48219906	     -2.90241485	      0.91803976	      0.25418660	     63.39401468	      2.31972944	     -5.05911502	     73.82884249	      1.28855638	     23.19580506	      0.00000000	      0.00000000	    -19.95777062	     -7.25845006	      2.42399209	     23.52529620	      0.41059388	     -9.10608540	      0.00000000	      0.00000000	    -25.15550755	     16.48337211	      0.57768152	    -61.18829416	    -35.56345845	    -30.32993466	    105.89517701	     87.41869777	      0.00000000	      0.00000000	     31.26502525	    -22.27361894	     22.19428470	    126.87144673	      1.45587050	      0.00000000	      0.00000000
      4.52000000	     -9.87771306	     -8.04914120	      1.86459117	     -2.87275162	      0.92074192	      0.25438362	     62.21464743	      2.74400509	     -5.19724462	     69.44895120	      1.21211286	     22.58376990	      0.00000000	      0.00000000	    -20.57235268	     -6.82419201	      3.06235729	     25.00255660	      0.43637693	     -9.72785887	      0.00000000	      0.00000000	    -25.33223755	     16.57151042	      1.22560664	    -60.69664146	    -35.61139740	    -30.11153538	    105.52971213	     87.43902947	      0.00000000	      0.00000000	     29.86221039	    -22.73853769	     22.18417037	    127.04634341	      1.43798651	      0.00000000	      0.00000000
      4.52500000	     -9.73460388	     -8.03270181	      1.20066995	     -2.84320155	      0.92330972	      0.25478136	     60.84088671	      3.22356091	     -5.28172322	     65.05273391	      1.13538439	     21.74761373	      0.00000000	      0.00000000	    -20.91752950	     -6.32951194	      3.48382534	     27.05386352	      0.47217899	     -9.82962826	      0.00000000	      0.00000000	    -25.56522046	     16.56841174	      1.93469702	    -59.90218499	    -35.64930880	    -29.75939170	    105.13034729	     87.40649840	      0.00000000	      0.00000000	     28.31308361	    -23.20991108	     22.13786751	    127.05890115	      1.45175613	      0.00000000	      0.00000000
      4.53000000	     -9.56678266	     -7.98583277	      0.48877221	     -2.81378328	      0.92572289	      0.25541606	     59.28938578	      3.76544278	     -5.30784377	     60.69292243	      1.05929133	     20.71658280	      0.00000000	      0.00000000	    -21.01720218	     -5.80589358	      3.62186708	     29.62550438	      0.51706259	     -9.56550236	      0.00000000	      0.00000000	    -25.86837953	     16.47870285	      2.67632299	    -58.81036825	    -35.72322132	    -29.24388239	    104.72597952	     87.39868604	      0.00000000	      0.00000000	     26.58442659	    -23.69964385	     22.00938491	    126.95179589	      1.44796026	      0.00000000	      0.00000000
      4.53500000	     -9.37060275	     -7.91412058	     -0.26425270	     -2.78451360	      0.92797916	      0.25629993	     57.58109670	      4.36131121	     -5.27209031	     56.43049658	      0.98489796	     19.53350267	      0.00000000	      0.00000000	    -20.89170118	     -5.28698929	      3.44645354	     32.65180195	      0.56988145	     -9.07956450	      0.00000000	      0.00000000	    -26.23110326	     16.29769274	      3.45812089	    -57.41316282	    -35.82609255	    -28.54479788	    104.27379255	     87.37099148	      0.00000000	      0.00000000	     24.74852388	    -24.18672579	     21.84234406	    126.65899459	      1.43990552	      0.00000000	      0.00000000
      4.54000000	     -9.14791164	     -7.81604286	     -1.04260283	     -2.75539668	      0.93008848	      0.25743319	     55.73967137	      4.98635160	     -5.17678556	     52.32842105	      0.91330324	     18.24293528	      0.00000000	      0.00000000	    -20.55573865	     -4.80131004	      2.97829877	     36.06048125	      0.62937413	     -8.47965335	      0.00000000	      0.00000000	    -26.65826491	     16.03246286	      4.21076966	    -55.67973970	    -35.96595573	    -27.64639106	    103.79770075	     87.35379668	      0.00000000	      0.00000000	     22.72161289	    -24.68985253	     21.51282606	    126.27296146	      1.46195272	      0.00000000	      0.00000000
      4.54500000	     -8.89146009	     -7.69575452	     -1.82542315	     -2.72643115	      0.93204396	      0.25878482	     53.78766408	      5.60866949	     -5.03765051	     48.46833980	      0.84593211	     16.88407103	      0.00000000	      0.00000000	    -20.03517980	     -4.38321314	      2.24815199	     39.78823608	      0.69443572	     -7.83732183	      0.00000000	      0.00000000	    -27.14637697	     15.69180697	      4.91990379	    -53.63708867	    -36.13967200	    -26.55586905	    103.29175466	     87.36566518	      0.00000000	      0.00000000	     20.53510010	    -25.18709507	     21.03036938	    125.76732288	      1.44000606	      0.00000000	      0.00000000
      4.55000000	     -8.60622585	     -7.54798561	     -2.59537034	     -2.69761967	      0.93384220	      0.26032918	     51.75997927	      6.19235380	     -4.86888222	     44.92880187	      0.78415552	     15.49506629	      0.00000000	      0.00000000	    -19.34519501	     -4.04496644	      1.32785210	     43.76753758	      0.76388764	     -7.17364567	      0.00000000	      0.00000000	    -27.67282183	     15.27212060	      5.57030192	    -51.28707895	    -36.33651498	    -25.23326249	    102.73290809	     87.36275601	      0.00000000	      0.00000000	     18.24062678	    -25.67781572	     20.44975423	    125.11094817	      1.44278686	      0.00000000	      0.00000000
